<svg width="34" height="34" viewBox="0 0 34 34" fill="none" xmlns="http://www.w3.org/2000/svg">
    <g clip-path="url(#clip0_8308_157317)">
        <rect x="0.612305" y="0.5" width="33" height="33" rx="3" fill="#652C3B"/>
        <path d="M-64.7308 38.4455C-36.6746 44.7229 -1.25128 38.6438 35.5454 6.7757C38.1431 4.52594 38.4256 0.596109 36.1759 -2.00159C33.9261 -4.59922 29.9965 -4.88074 27.3988 -2.63109C-6.74857 26.9425 -38.2073 31.6161 -61.9769 26.3098L-99.4402 17.3352C-102.782 16.535 -106.14 18.5954 -106.94 21.9372C-107.741 25.2791 -105.68 28.6367 -102.338 29.4373L-64.8219 38.4246L-64.7761 38.436L-64.7308 38.4455Z"
              fill="#E56D52"/>
        <path d="M-59.2502 27.9985C-31.919 35.4155 -6.84749 41.5708 26.7569 31.2587C30.0421 30.2506 31.8876 26.7699 30.8795 23.4847C29.8714 20.1996 26.3914 18.3532 23.1063 19.361C-6.84402 28.5518 -28.9024 23.3378 -55.9019 16.0124L-92.7151 4.80518C-96.0025 3.80448 -99.4786 5.65757 -100.48 8.94495C-101.48 12.2325 -99.6261 15.7093 -96.3386 16.7102L-59.4335 27.9454L-59.3426 27.9735L-59.2502 27.9985Z"
              fill="#C5C1F7"/>
        <circle cx="6.22231" cy="6.22231" r="6.22231" transform="matrix(0.974 -0.226549 -0.226549 -0.974 18.8662 16)"
                fill="#FFF9F1"/>
    </g>
    <defs>
        <clipPath id="clip0_8308_157317">
            <rect x="0.612305" y="0.5" width="33" height="33" rx="3" fill="white"/>
        </clipPath>
    </defs>
</svg>
