<svg width="34" height="34" viewBox="0 0 34 34" fill="none" xmlns="http://www.w3.org/2000/svg">
    <g clip-path="url(#clip0_8308_162228)">
        <rect x="0.612305" y="0.142578" width="33" height="33" rx="3" fill="#652C3B"/>
        <path d="M-64.7308 38.0881C-36.6746 44.3655 -1.25128 38.2863 35.5454 6.41827C38.1431 4.16852 38.4256 0.238687 36.1759 -2.35901C33.9261 -4.95664 29.9965 -5.23817 27.3988 -2.98851C-6.74857 26.5851 -38.2073 31.2587 -61.9769 25.9523L-99.4402 16.9778C-102.782 16.1776 -106.14 18.238 -106.94 21.5798C-107.741 24.9217 -105.68 28.2793 -102.338 29.0798L-64.8219 38.0671L-64.7761 38.0786L-64.7308 38.0881Z"
              fill="#E56D52"/>
        <path d="M-59.2502 27.641C-31.919 35.0581 -6.84749 41.2134 26.7569 30.9013C30.0421 29.8931 31.8876 26.4125 30.8795 23.1273C29.8714 19.8422 26.3914 17.9958 23.1063 19.0036C-6.84402 28.1943 -28.9024 22.9803 -55.9019 15.655L-92.7151 4.44775C-96.0025 3.44706 -99.4786 5.30015 -100.48 8.58753C-101.48 11.875 -99.6261 15.3519 -96.3386 16.3528L-59.4335 27.588L-59.3426 27.6161L-59.2502 27.641Z"
              fill="#FFF9F1"/>
        <circle cx="6.22231" cy="6.22231" r="6.22231"
                transform="matrix(0.974 -0.226549 -0.226549 -0.974 18.8662 15.6426)" fill="#FFF9F1"/>
    </g>
    <defs>
        <clipPath id="clip0_8308_162228">
            <rect x="0.612305" y="0.142578" width="33" height="33" rx="3" fill="white"/>
        </clipPath>
    </defs>
</svg>
