<?xml version="1.0" encoding="UTF-8"?>
<svg xmlns="http://www.w3.org/2000/svg" width="176" height="75" viewBox="0 0 176 75" fill="none">
  <path d="M30.1978 74.4761H0V0.368042H28.1696C28.1696 0.368042 19.0686 14.1981 19.0686 37.6061C19.0686 59.8233 30.1761 74.4587 30.1761 74.4587" fill="#002041"></path>
  <path d="M37.9907 0.368042H11.2383V74.4804H37.9907V0.368042Z" fill="url(#paint0_radial_1831_19654)"></path>
  <mask id="mask0_1831_19654" style="mask-type:alpha" maskUnits="userSpaceOnUse" x="24" y="0" width="61" height="75">
    <path fill-rule="evenodd" clip-rule="evenodd" d="M84.5075 0.368042H34.4957C27.3657 11.5123 23.7632 24.5449 24.1582 37.7656C24.5533 50.9863 28.9275 63.781 36.7102 74.4804H84.5075V0.368042Z" fill="#00A4E1"></path>
  </mask>
  <g mask="url(#mask0_1831_19654)">
    <path d="M84.6126 0.367737H27.3633V74.4801H84.6126V0.367737Z" fill="url(#paint1_radial_1831_19654)"></path>
  </g>
  <path d="M82.9798 63.4C83.0403 63.2165 83.0852 63.0282 83.1142 62.8371C79.7441 62.0211 76.56 60.5722 73.7316 58.5677C73.5423 58.797 73.3795 59.0469 73.2462 59.3125C73.1705 59.3447 73.0899 59.3637 73.0078 59.3688C75.804 61.3728 78.9402 62.8545 82.2648 63.7421C82.5095 63.6418 82.7482 63.5276 82.9798 63.4" fill="#47B3E6"></path>
  <path d="M72.6534 58.6803C72.9004 58.5071 73.1474 58.3123 73.2471 58.2473C73.1908 58.204 73.0347 58.0525 72.9827 58.0092C72.8007 57.9875 72.4974 58.0092 71.6826 57.8879C71.6393 57.784 71.5829 57.6411 71.5439 57.5329C71.4394 57.5291 71.3357 57.5531 71.2435 57.6026C71.1514 57.652 71.0741 57.7251 71.0195 57.8143C71.6263 58.3339 72.2503 58.8102 72.8917 59.2735C72.8354 59.1306 72.7834 59.0267 72.662 58.6933" fill="#47B3E6"></path>
  <path d="M63.1036 25.2828C63.1036 25.2525 63.0386 25.2049 63.0256 25.1832C62.9216 25.4344 62.8219 25.6898 62.7266 25.9453C62.9606 25.7981 63.1946 25.6682 63.1989 25.6639C63.1541 25.5405 63.1222 25.4128 63.1036 25.2828Z" fill="#47B3E6"></path>
  <path d="M65.2643 20.7796C64.735 21.6299 64.2504 22.5072 63.8125 23.4079L64.2459 23.5205C64.4062 23.3819 64.5016 23.3126 64.5492 23.278C64.6272 23.4901 64.7139 23.6893 64.7876 23.8928C65.1719 23.1019 65.5966 22.3268 66.0617 21.5676C65.9144 21.2039 65.819 21.022 65.676 20.7319L65.2687 20.7796" fill="#47B3E6"></path>
  <path d="M57.88 32.224L57.9017 32.1677L58.6428 31.8732V31.791C58.27 31.479 57.9534 31.1055 57.7067 30.6868C57.6113 31.2627 57.5377 31.8429 57.4727 32.4188C57.6157 32.3669 57.815 32.4188 57.867 32.2153" fill="#47B3E6"></path>
  <path d="M70.6128 59.2043C70.3225 58.8666 70.2791 58.6241 69.9541 58.3383C69.6788 58.4093 69.4104 58.5049 69.1523 58.6241C73.493 62.5243 78.8545 65.1104 84.6109 66.0804V64.9805C79.5364 64.0924 74.7799 61.902 70.8078 58.6241C70.788 58.8298 70.7213 59.0283 70.6128 59.2043" fill="#47B3E6"></path>
  <path d="M83.8203 63.0103C83.9192 63.3558 83.9873 63.7093 84.024 64.0668C83.8873 63.9366 83.7425 63.8151 83.5906 63.7031C83.4303 63.8286 83.4172 63.833 83.2266 63.9975C83.6383 64.0928 84.1757 64.1707 84.596 64.2443V63.1402C84.3707 63.0969 84.0283 63.0579 83.803 63.0103" fill="#47B3E6"></path>
  <path d="M59.3292 28.0022C59.3855 27.8636 59.4506 27.7251 59.4809 27.6688C59.7149 26.8028 59.9923 25.9368 60.3 25.1097C60.2591 24.907 60.1579 24.7214 60.0096 24.5771C59.9056 24.6551 59.5762 24.9409 59.4636 25.0448C59.3965 24.9691 59.3256 24.8968 59.2512 24.8283C58.5681 26.7013 58.0603 28.6335 57.7344 30.6002C57.8557 30.3967 57.8731 30.375 57.9727 30.1672C58.0377 30.1196 58.2241 30.0373 58.4538 29.9247C58.4104 29.7342 58.3584 29.5567 58.3151 29.3272C58.3801 29.2232 58.8308 28.7946 59.0345 28.5651C58.8713 28.2126 58.7786 27.8316 58.7615 27.4436C58.9235 27.6505 59.1147 27.8328 59.3292 27.9849" fill="#47B3E6"></path>
  <path d="M56.5025 38.1949C56.3638 38.0131 56.2251 37.8226 55.9868 37.5498C55.9365 37.3945 55.9003 37.2351 55.8784 37.0735C55.7856 36.8813 55.6814 36.6948 55.5664 36.5149C55.5758 38.0904 55.7091 39.6627 55.9651 41.2173C56.0468 41.138 56.1515 41.0865 56.2641 41.0701C56.2805 40.8422 56.3567 40.6226 56.4852 40.4335C56.4111 40.2207 56.3242 40.0125 56.2251 39.81C56.2685 39.7321 56.5632 39.6065 56.6239 39.5589C56.5935 39.2904 56.5675 39.0263 56.5458 38.7578C56.4414 38.6857 56.3529 38.5928 56.2858 38.485C56.349 38.3819 56.4215 38.2848 56.5025 38.1949" fill="#47B3E6"></path>
  <path d="M60.5891 27.4132C60.48 27.4713 60.3757 27.5379 60.2771 27.6124C60.212 27.8506 60.1427 28.0887 60.082 28.3269C60.1356 28.4153 60.214 28.486 60.3074 28.5304C60.3048 28.6472 60.33 28.763 60.3811 28.8681L60.6671 28.7426C60.7798 28.4394 60.8318 28.0887 61.1005 27.9415C61.0991 27.7858 61.1384 27.6325 61.2144 27.4966C61.2904 27.3607 61.4005 27.2469 61.5339 27.1664C61.8228 26.2369 62.1594 25.319 62.5436 24.4125C62.5436 24.4125 62.1579 24.1657 61.9326 24.0445C61.7756 24.075 61.6207 24.1155 61.4688 24.1657C61.4385 24.2437 61.4038 24.3216 61.3735 24.3952L61.7679 24.5598C61.8849 24.6853 61.9239 24.7416 62.2013 25.0837C62.2013 25.0837 61.7982 25.7678 61.6075 26.0926C61.5859 26.0926 61.4038 26.032 61.2478 25.941C61.1252 25.8689 60.9978 25.8053 60.8664 25.7505C60.7841 25.9757 60.7191 26.1835 60.6454 26.4303C60.6021 26.7551 60.6151 27.2184 60.5934 27.4132" fill="#47B3E6"></path>
  <path d="M63.1838 22.4512C62.9728 22.8528 62.7339 23.2391 62.4688 23.6073C62.5612 23.7059 62.6755 23.7815 62.8025 23.8281C63.266 22.7988 63.7884 21.7969 64.3669 20.8274C64.0766 20.3598 64.0246 20.2905 63.9856 20.2082C64.0751 19.9109 64.1403 19.6068 64.1806 19.2989C64.1727 19.256 64.1515 19.2166 64.1199 19.1863C63.7992 19.667 63.5002 20.1606 63.2142 20.6542C63.2142 20.6802 63.2142 22.0312 63.1838 22.4512" fill="#47B3E6"></path>
  <path d="M60.3472 23.5813C60.3472 23.5813 60.1825 23.1483 59.9138 23.105C59.7578 23.473 59.6018 23.8411 59.4805 24.2135C59.5455 24.2135 59.7058 24.2135 59.7362 24.2135C59.9599 24.0248 60.1659 23.8161 60.3516 23.5899" fill="#47B3E6"></path>
  <path d="M60.2703 22.5982L60.5606 22.5029C60.7896 22.6101 61.024 22.7055 61.2627 22.7887C61.2891 22.7406 61.3244 22.698 61.3667 22.6631C61.3667 22.4683 61.3667 22.3427 61.3407 22.1955C61.3147 22.0483 61.1674 21.572 61.098 21.4161C61.4187 21.3165 61.6484 21.2559 62.0601 21.113C62.2985 20.68 62.2508 20.1171 62.7665 19.8486C62.8243 19.8142 62.8733 19.7667 62.9095 19.7101C63.2129 19.2078 63.5336 18.7098 63.8673 18.2249L63.7026 18.1166C63.7315 17.9254 63.7174 17.7302 63.6611 17.5452C63.6049 17.3601 63.508 17.19 63.3776 17.0471C62.1323 18.7678 61.0623 20.6085 60.1836 22.5419C60.1836 22.5635 60.2226 22.5635 60.2703 22.5982Z" fill="#47B3E6"></path>
  <path d="M83.2486 61.4859C83.0624 61.1507 82.7977 60.8654 82.4772 60.6545C81.5606 60.3863 80.6593 60.0682 79.7773 59.7019C79.6256 59.8058 79.4826 59.9141 79.3786 60.0007C79.3396 60.2432 79.3439 60.3428 79.2962 60.529C79.0692 60.5423 78.842 60.5083 78.6288 60.4294C78.4771 60.0786 78.5248 59.6283 78.3514 59.3339C78.0631 59.36 77.773 59.36 77.4847 59.3339L77.1683 59.65C76.7534 59.4046 76.3804 59.0947 76.0632 58.732C75.8396 58.7894 75.6122 58.8314 75.3828 58.8576V58.8576C77.8177 60.3771 80.4807 61.4969 83.2703 62.1744C83.3115 61.9365 83.3115 61.6934 83.2703 61.4556" fill="#47B3E6"></path>
  <path d="M66.5017 22.529C66.4795 22.4219 66.4505 22.3163 66.4151 22.2129C66.2461 22.4943 66.0857 22.7801 65.9297 23.0789C66.4584 22.6026 66.5147 22.7022 66.5017 22.542" fill="#47B3E6"></path>
  <path d="M53.9336 52.7049C54.1893 53.2548 54.4623 53.7961 54.744 54.333C54.7485 53.9464 54.7254 53.5601 54.6747 53.1769C54.4591 52.9749 54.2078 52.8149 53.9336 52.7049" fill="#47B3E6"></path>
  <path d="M56.7148 60.4122C56.9835 60.633 57.1482 60.7413 57.6163 61.105H57.7376C57.4559 60.7456 57.1742 60.3819 56.9055 60.0095L56.7148 60.4209" fill="#47B3E6"></path>
  <path d="M58.6738 23.9624C58.2487 24.4415 57.8591 24.9509 57.508 25.4866C57.4926 25.7447 57.4926 26.0035 57.508 26.2616C57.3607 26.3959 57.0746 26.5647 56.8623 26.6946C56.7929 26.9414 56.7149 27.1882 56.6542 27.4394C56.0523 29.7667 55.7007 32.1516 55.6055 34.5536C55.7944 34.8109 55.9543 35.0882 56.0822 35.3806C56.1689 35.7313 56.0085 36.0951 56.1515 36.4415C56.2457 36.6386 56.3498 36.8308 56.4636 37.0174C56.4636 36.4934 56.4419 35.9652 56.4636 35.4369C56.4604 35.3806 56.4487 35.3251 56.4289 35.2724C56.394 35.1426 56.3808 35.008 56.3899 34.874C56.4099 34.7911 56.4405 34.711 56.4809 34.6359C56.6188 30.9732 57.3703 27.3595 58.7041 23.9451" fill="#47B3E6"></path>
  <path d="M58.7984 59.8622C58.7984 59.8622 58.7984 59.5808 58.7724 59.4552C58.2726 58.797 57.7959 58.1259 57.3423 57.4417C57.2904 57.4375 57.2382 57.4375 57.1863 57.4417C56.9826 57.485 56.8049 57.5197 56.6445 57.5457C57.9919 59.6076 59.5284 61.5399 61.234 63.3176C61.234 63.2959 61.4897 63.2396 61.5027 63.218C61.6067 63.3912 61.637 63.3998 61.8147 63.7246C61.9361 63.7246 62.2481 63.6726 62.4648 63.638C62.1008 63.2829 61.7454 62.9192 61.3987 62.5468C60.4311 61.7487 59.5586 60.8421 58.7984 59.8449" fill="#47B3E6"></path>
  <path d="M58.1397 9.27484C58.0401 9.39608 57.9317 9.51299 57.832 9.63423C57.9381 9.65033 58.0454 9.65757 58.1527 9.65588C58.1633 9.52909 58.1633 9.40163 58.1527 9.27484" fill="#47B3E6"></path>
  <path d="M69.5665 2.01332L69.3281 2.15621C69.4408 2.15621 69.6358 2.34673 69.7615 2.36838C69.8048 2.36838 70.1949 2.06528 70.1125 1.88342C70.0085 1.97868 69.9739 2.02198 69.8482 2.13889C69.7459 2.11913 69.6495 2.07617 69.5665 2.01332" fill="#47B3E6"></path>
  <path d="M56.7416 59.7759C55.2781 57.7501 54.0029 55.5949 52.9322 53.3372C52.7101 53.3532 52.4962 53.4279 52.3125 53.5537C52.8586 54.7083 53.461 55.8442 54.1197 56.9614C54.8001 58.1132 55.5325 59.2173 56.3082 60.2868L56.4859 60.3171C56.4513 60.1266 56.4339 60.0703 56.4123 59.9577C56.5183 59.8906 56.6283 59.8298 56.7416 59.7759Z" fill="#47B3E6"></path>
  <path d="M50.0331 46.5565C50.1592 46.5334 50.2865 46.5175 50.4145 46.5089C48.8773 40.8354 48.5963 34.8953 49.591 29.1022C49.396 29.2321 49.318 29.2841 49.1577 29.3707C49.0618 29.3685 48.9663 29.3598 48.8716 29.3447C47.9415 35.015 48.2161 40.8174 49.6777 46.3746C49.7968 46.4225 49.9102 46.4835 50.0158 46.5565" fill="#47B3E6"></path>
  <path d="M54.2784 15.9473C55.0654 14.5637 55.9337 13.2277 56.8786 11.9464C56.8483 11.7949 56.8136 11.639 56.7919 11.4874C56.7399 11.1064 57.1213 10.8639 57.1517 10.5132C55.9108 12.0972 54.7882 13.7702 53.793 15.5187C53.9782 15.6412 54.1471 15.7867 54.2957 15.9517" fill="#47B3E6"></path>
  <path d="M51.5119 21.9187C51.5119 21.8104 51.5119 21.5809 51.5119 20.9401C51.5119 20.7669 51.4512 20.5937 51.4122 20.4205C50.7199 22.1285 50.1408 23.8801 49.6787 25.6641C49.5531 26.1491 49.4404 26.6384 49.332 27.1233C49.49 27.3206 49.5958 27.5543 49.6397 27.8031C49.6397 27.959 49.6787 28.0759 49.8001 28.0802C49.9474 27.3268 50.1164 26.5777 50.3115 25.8243C50.6538 24.495 51.0612 23.1917 51.5249 21.9273" fill="#47B3E6"></path>
  <path d="M56.445 49.3318C56.689 49.198 56.8948 49.0042 57.0431 48.7689C56.6487 47.7773 56.302 46.7641 56.003 45.7379C55.4959 45.1447 55.3963 44.361 55.3009 42.9277C55.2619 42.7372 55.1839 42.3085 55.1146 41.9102C54.4683 38.1612 54.4419 34.3317 55.0365 30.5742C54.9242 30.8141 54.7877 31.0418 54.6292 31.254C54.4407 31.3215 54.2463 31.3708 54.0484 31.4013C53.3765 36.5489 53.8425 41.7812 55.4136 46.7295C55.5826 46.855 55.847 47.0109 56.211 47.2447C56.211 47.2447 55.9466 48.587 56.4667 49.3318" fill="#47B3E6"></path>
  <path d="M57.0855 53.2333C56.8948 52.8782 56.7171 52.5188 56.5395 52.1594C56.5395 52.1594 56.4961 52.3759 56.4918 52.4149L56.2188 52.4539C56.2406 52.6023 56.2799 52.7476 56.3358 52.8869C56.4484 52.9518 56.8081 53.1207 57.0855 53.2376" fill="#47B3E6"></path>
  <path d="M60.6712 53.6228C60.9253 53.6221 61.1779 53.5842 61.4209 53.5102C61.4209 53.5102 61.4209 53.5102 61.4556 53.4843C61.0222 52.7568 60.5888 52.0164 60.1815 51.2586C60.0818 51.2153 59.8824 51.1244 59.7481 51.0465C59.6137 50.9685 59.215 50.9555 59.0547 50.9209C59.4072 51.6397 59.7813 52.3426 60.1771 53.0296C60.3185 52.993 60.4654 52.9827 60.6105 52.9993C60.6409 53.1422 60.6365 53.2764 60.6669 53.6228" fill="#47B3E6"></path>
  <path d="M64.1392 59.9791C64.1176 60.0094 64.1002 60.0354 64.0742 60.0657C64.2255 60.4539 64.326 60.8599 64.3732 61.2738C64.3342 61.3054 64.2993 61.3418 64.2692 61.382C68.8083 65.944 74.4992 69.1925 80.7376 70.7825C82.0148 71.1023 83.3081 71.3538 84.612 71.5359V70.6699C83.4332 70.4924 82.1331 70.2369 80.9543 69.9555C74.5111 68.3018 68.6763 64.84 64.1392 59.9791Z" fill="#47B3E6"></path>
  <path d="M67.5101 60.724C67.1576 60.822 66.7807 60.7768 66.4614 60.5984L66.1927 59.4812C65.8893 59.1781 65.5903 58.8664 65.2999 58.546C65.1589 58.8044 64.9584 59.0255 64.7148 59.1911C69.1454 63.9773 74.8632 67.3855 81.1832 69.0073C82.284 69.293 83.5018 69.5139 84.6026 69.6871V68.8211C83.5755 68.6608 82.4357 68.4487 81.3999 68.1845C76.2339 66.8577 71.4657 64.3026 67.5015 60.7369" fill="#47B3E6"></path>
  <path d="M67.2889 8.05818L67.4926 8.09715C67.692 7.89797 67.666 7.69013 67.8133 7.47363C67.6096 7.62518 67.4103 7.7724 67.2109 7.93261C67.2149 7.95768 67.2239 7.9817 67.2373 8.00326C67.2507 8.02483 67.2682 8.0435 67.2889 8.05818" fill="#47B3E6"></path>
  <path d="M62.7336 61.1613C62.5694 61.2146 62.4087 61.2782 62.2526 61.3518C62.2526 61.5423 62.2526 61.7458 62.2266 61.8887C62.4779 62.1528 62.7336 62.417 62.9893 62.6724C63.6024 63.0205 64.1826 63.4234 64.7228 63.8762C64.7228 63.9065 64.6405 64.1836 64.6318 64.2052C69.1094 68.1884 74.4748 71.0447 80.2811 72.5362C81.7095 72.8917 83.1563 73.1692 84.6149 73.3675V72.5015C83.2306 72.3119 81.8577 72.0473 80.5021 71.7091C73.6909 69.9673 67.5236 66.3078 62.7336 61.1656" fill="#47B3E6"></path>
  <path d="M68.5271 7.08401C68.9172 6.87184 68.9171 6.87184 69.0168 7.30917C69.0385 7.40443 69.0645 7.49969 69.0905 7.59495L69.4675 7.31783V6.28729C69.0992 6.53843 68.7308 6.7939 68.3711 7.05803C68.3898 7.08134 68.4159 7.0975 68.4451 7.10381C68.4743 7.11012 68.5048 7.10619 68.5314 7.09267" fill="#47B3E6"></path>
  <path d="M69.6394 4.12203C69.5577 4.11731 69.4757 4.12609 69.3968 4.14801C68.3133 4.84081 67.2631 5.58701 66.2461 6.38662C66.2607 6.46099 66.2709 6.53619 66.2764 6.61178C66.6015 6.68106 66.6015 6.68106 66.3241 7.29592C66.2964 7.35494 66.2775 7.41766 66.2678 7.48211C67.2828 6.6496 68.3418 5.87198 69.4401 5.15257L69.2754 5.0703C69.1343 5.11492 68.9892 5.14538 68.842 5.16123C68.8177 5.04208 68.8298 4.91837 68.8767 4.80617C68.9547 4.80617 69.1324 4.78019 69.2797 4.75421C69.4082 4.5508 69.524 4.33967 69.6264 4.12203" fill="#47B3E6"></path>
  <path d="M53.8805 1.00888C53.8917 1.03243 53.9004 1.0571 53.9065 1.08249L54.0711 0.922283C54.1937 0.747053 54.301 0.561625 54.3918 0.368042H54.1708C53.9368 0.601862 53.6984 0.831352 53.4688 1.0695C53.6114 1.03794 53.7563 1.01767 53.9021 1.00888" fill="#47B3E6"></path>
  <path d="M45.2109 21.7497C45.2375 21.8366 45.2754 21.9195 45.3236 21.9965C45.3843 21.9056 45.445 21.8666 45.5576 21.6978C45.5678 21.4784 45.6013 21.2606 45.6573 21.0483C45.732 21.1051 45.7915 21.1795 45.8307 21.2648C46.3393 19.7416 46.9266 18.2457 47.5902 16.7832C47.5823 16.6363 47.6029 16.4893 47.6509 16.3502L47.4818 16.2636C47.4177 16.3272 47.3447 16.3811 47.2651 16.4238C46.4739 18.1489 45.7879 19.9202 45.2109 21.7281" fill="#47B3E6"></path>
  <path d="M56.8136 0.368042C56.4019 0.749082 55.9902 1.13878 55.5915 1.53281C55.4911 1.82836 55.3664 2.11511 55.2188 2.39015C55.8905 1.69735 56.5926 1.03486 57.3076 0.385362L56.8136 0.368042Z" fill="#47B3E6"></path>
  <path d="M43.6045 8.4521C43.6045 8.38715 43.6045 8.34385 43.6045 8.23127C43.6045 8.11869 43.6045 8.08838 43.5655 8.0191C40.8343 12.53 38.7813 17.4174 37.4722 22.5246C37.1342 23.8352 36.8453 25.1515 36.6055 26.4736C36.6903 26.4683 36.7723 26.4415 36.8438 26.3956C37.0923 25.114 37.3783 23.8438 37.7019 22.5852C38.9804 17.6156 40.9684 12.8557 43.6045 8.4521" fill="#47B3E6"></path>
  <path d="M44.3594 10.786C45.3675 8.9787 46.4833 7.23346 47.7007 5.55971C47.6275 5.52919 47.55 5.51021 47.471 5.50342C46.3625 7.03339 45.3396 8.62349 44.407 10.2664C44.407 10.4136 44.381 10.5912 44.3594 10.7904" fill="#47B3E6"></path>
  <path d="M66.9922 72.2116C67.0051 72.3268 67.0254 72.4411 67.0529 72.5537C68.1745 73.2554 69.3317 73.8985 70.5199 74.4806H71.482C69.9926 73.7709 68.5456 72.9757 67.1482 72.0991L66.9922 72.2116Z" fill="#47B3E6"></path>
  <path d="M59.9599 2.97483C59.9734 2.80543 59.934 2.63601 59.8472 2.48987C59.3532 2.92287 58.8634 3.39051 58.3867 3.86248L58.6251 4.23053C59.0585 3.79753 59.4918 3.36453 59.9599 2.97483" fill="#47B3E6"></path>
  <path d="M43.6054 3.76257C40.5924 8.05583 38.2011 12.7526 36.5023 17.7138C36.4417 17.9866 36.3767 18.2551 36.3203 18.5279C38.0268 13.293 40.4993 8.33917 43.6574 3.82752C43.6424 3.80275 43.625 3.77954 43.6054 3.75824" fill="#47B3E6"></path>
  <path d="M54.2109 30.1326C54.533 29.907 54.8426 29.6642 55.1384 29.4051C55.1304 29.0891 55.1029 28.7738 55.056 28.4612C55.2727 28.2144 55.4287 27.9935 55.5587 27.8506C55.6107 27.6385 55.6541 27.4176 55.7061 27.2185C56.7631 23.1015 58.5653 19.2126 61.0236 15.744L60.5079 14.9819C57.8954 18.6021 55.9845 22.679 54.874 27.002C54.6111 28.0412 54.393 29.0847 54.2196 30.1326" fill="#47B3E6"></path>
  <path d="M52.7937 27.8375C52.6203 28.6472 52.564 28.946 52.5293 29.1365C52.6733 29.3209 52.7807 29.5311 52.8457 29.7557C52.8457 29.799 52.5077 30.1238 52.4123 30.219C52.447 30.5784 52.4383 30.6087 52.447 30.8555C52.3823 30.9761 52.2989 31.0857 52.2 31.1803C52.1653 31.4228 52.1393 31.6609 52.1133 31.9034C52.14 32.1382 52.2333 32.3605 52.382 32.5442C52.4626 32.4289 52.5525 32.3203 52.6507 32.2195C52.7547 32.1849 52.85 32.2498 52.9454 32.2498C53.6395 25.4843 56.1889 19.0415 60.3128 13.6308L60.1915 12.4617L60.1655 12.4054C56.8257 16.5671 54.413 21.3927 53.0884 26.5602C52.98 26.9932 52.8804 27.4262 52.785 27.8592" fill="#47B3E6"></path>
  <path d="M53.1283 45.4259C53.3069 45.2498 53.4949 45.0836 53.6917 44.928C53.7699 44.9559 53.8442 44.9937 53.9127 45.0406C52.9361 41.2253 52.582 37.2775 52.8639 33.3495C52.8206 33.3842 52.6299 33.4058 52.5909 33.4405C52.5008 33.7075 52.3922 33.9679 52.2659 34.2199C52.1564 34.1816 52.0506 34.1338 51.9495 34.077C51.7576 37.8975 52.1522 41.7248 53.1196 45.4259V45.4259" fill="#47B3E6"></path>
  <path d="M57.9054 52.2587C58.1647 52.31 58.4265 52.3476 58.6898 52.3713C58.5251 52.0552 58.3691 51.7304 58.2087 51.41C58.1234 51.4391 58.0366 51.4637 57.9487 51.4836C57.836 51.4447 57.784 51.436 57.6497 51.4014C57.5153 51.4663 57.3333 51.5659 57.3203 51.5659C57.4027 51.7348 57.485 51.9036 57.5717 52.0725C57.6967 52.1058 57.8114 52.1698 57.9054 52.2587" fill="#47B3E6"></path>
  <path d="M58.3452 22.9101C58.3799 22.9361 58.3799 22.9794 58.4622 23.1699C58.5607 23.0961 58.6495 23.0103 58.7266 22.9145C58.7397 22.7026 58.8218 22.5008 58.9602 22.3398C59.0987 22.1788 59.286 22.0674 59.4937 22.0225C60.1246 20.6581 60.8486 19.3387 61.6606 18.0735C61.5243 17.8597 61.4054 17.6353 61.3052 17.4024C61.7126 16.8784 62.1416 16.3329 62.276 16.1726C62.4797 16.0947 62.5923 16.0601 62.7093 16.0124C62.7093 16.0124 62.666 15.8176 62.6487 15.6097C62.5227 15.6369 62.3954 15.6571 62.2673 15.6704C60.6101 17.9098 59.2347 20.3442 58.1719 22.9188H58.3669" fill="#47B3E6"></path>
  <path d="M67.4944 58.4723C66.9744 57.9223 67.1347 58.0912 66.944 57.9007C66.8053 58.2558 67.009 58.6541 66.944 59.0178C71.7689 63.7474 77.9468 66.8602 84.6215 67.9247V66.8292C78.2886 65.7831 72.4265 62.8297 67.8195 58.364C67.7804 58.364 67.5334 58.4549 67.5031 58.4723" fill="#47B3E6"></path>
  <path d="M62.2368 52.6443C62.5272 52.6702 62.7049 52.7135 62.9736 52.7309C63.0132 52.6552 63.0479 52.5771 63.0776 52.497L62.9476 52.2805C62.7106 52.1765 62.4817 52.0549 62.2628 51.9168C62.0647 51.5552 61.8882 51.1821 61.7341 50.7997C61.5343 51.0135 61.3743 51.2614 61.2617 51.5315C61.5564 52.0684 61.8641 52.5966 62.1891 53.1206C62.1891 52.9604 62.2152 52.7742 62.2368 52.6443" fill="#47B3E6"></path>
  <path d="M65.7928 66.5782C65.7538 66.8467 65.7235 67.0112 65.6758 67.31C69.8857 70.5423 74.7082 72.8874 79.8516 74.2034C80.2286 74.303 80.61 74.3939 80.987 74.4805H84.6101C83.0632 74.2641 81.5296 73.962 80.0163 73.5755C74.8418 72.2509 69.9987 69.8683 65.7928 66.5782" fill="#47B3E6"></path>
  <path d="M51.236 30.4053C51.1405 30.2997 51.0345 30.204 50.9197 30.1196C50.7355 30.4021 50.5897 30.7079 50.4863 31.0289C50.4473 31.345 50.4126 31.6654 50.3779 31.9815C50.4559 32.4708 50.4603 32.592 50.5556 33.458C50.4701 33.6521 50.3594 33.8341 50.2263 33.9993C50.0492 37.6353 50.3774 41.2783 51.2014 44.8243C51.4059 44.7322 51.6055 44.6296 51.7994 44.5168C50.7402 39.8824 50.5491 35.092 51.236 30.388" fill="#47B3E6"></path>
  <path d="M65.2891 68.5006C65.3931 68.6781 65.6444 69.0981 65.7224 69.2584C65.6444 69.3709 65.6444 69.3969 65.5578 69.5138C68.4002 71.5519 71.4904 73.2207 74.754 74.4803H76.7086C72.6143 73.1054 68.7665 71.0852 65.3107 68.4963V68.4963" fill="#47B3E6"></path>
  <path d="M69.0825 2.58069C69.1605 2.45945 69.1952 2.38151 69.2212 2.34254C69.2472 2.30357 69.2472 2.21264 69.2516 2.19965C67.9725 2.97203 66.7382 3.8163 65.5548 4.72837C65.5255 4.87558 65.4849 5.02034 65.4335 5.16137C65.3818 5.32954 65.3583 5.50513 65.3642 5.68097C66.7655 4.57349 68.2394 3.5609 69.7759 2.64997C69.5289 2.611 69.2992 2.64997 69.0825 2.58502" fill="#47B3E6"></path>
  <path d="M58.3086 13.0636C58.6206 12.6306 58.9413 12.2193 59.2707 11.8036C59.2339 11.684 59.186 11.568 59.1277 11.4572L58.807 11.5135C58.7958 11.4693 58.7871 11.4245 58.781 11.3793L58.4039 11.8599C58.4039 12.0591 58.3693 12.4098 58.3086 13.0636" fill="#47B3E6"></path>
  <path d="M47.9541 27.3485C48.4667 24.8576 49.2006 22.4174 50.147 20.0568C50.0733 19.7407 50.0126 19.5198 49.9606 19.364C48.8309 22.0759 47.9829 24.8965 47.4297 27.7815C47.5814 27.6386 47.8631 27.4567 47.9541 27.3485" fill="#47B3E6"></path>
  <path d="M58.6641 9.17523L58.5688 9.21853C58.5688 9.21853 58.4995 9.54328 58.4258 9.93731C58.5515 9.78576 58.6901 9.63854 58.8202 9.50431C58.8297 9.442 58.8199 9.37825 58.792 9.32171C58.7641 9.26517 58.7194 9.21857 58.6641 9.18822" fill="#47B3E6"></path>
  <path d="M51.6756 27.9371C51.794 27.3829 51.924 26.8286 52.0656 26.2744C53.2577 21.6572 55.2941 17.3001 58.0722 13.4229H57.8772C57.7039 13.6005 57.5088 13.7693 57.3312 13.9382C57.3312 13.7087 57.3051 13.6005 57.3051 13.3753C55.5532 15.8708 54.0987 18.562 52.9714 21.3945C52.9714 21.9314 53.006 22.1609 53.0364 22.8753C52.889 22.845 52.7287 22.7931 52.4773 22.7238C52.655 23.0918 52.876 23.4469 52.6767 23.8972L52.4903 23.7976L52.3646 23.9665C52.2739 23.8802 52.2029 23.7754 52.1566 23.6591C51.8923 24.4644 51.6539 25.2785 51.4372 26.1098C51.3679 26.3783 51.3029 26.6468 51.2422 26.9152C51.3259 26.948 51.4071 26.9871 51.4849 27.0321C51.4589 27.3396 51.3895 27.7769 51.3679 27.9501C51.4717 27.9586 51.5761 27.9586 51.6799 27.9501" fill="#47B3E6"></path>
  <path d="M53.1002 1.92694C53.1002 1.82302 53.1002 1.7191 53.1002 1.62817H52.9312C52.6018 1.97457 52.2926 2.32242 52.0037 2.6717C51.9604 2.87955 51.9214 3.10471 51.8867 3.29956C52.2883 2.8348 52.7 2.37726 53.1218 1.92694" fill="#47B3E6"></path>
  <path d="M46.7016 3.84496C47.161 3.25608 47.629 2.63689 48.1058 2.05234C48.0469 2.0356 47.9913 2.00927 47.9411 1.9744C47.9368 1.93699 47.9368 1.89922 47.9411 1.86182C47.4687 2.43771 47.005 3.01793 46.5586 3.61547C46.5603 3.67517 46.5735 3.73399 46.5976 3.78867C46.6322 3.79671 46.6629 3.81663 46.6843 3.84496" fill="#47B3E6"></path>
  <path d="M46.3145 4.35594L46.2495 4.26068C45.954 4.56432 45.7382 4.93616 45.6211 5.34318C45.8508 5.0141 46.0545 4.68069 46.3145 4.35594" fill="#47B3E6"></path>
  <path d="M44.8129 6.52981C44.8605 6.30465 44.9125 6.09681 44.9559 5.88464C44.5918 6.42734 44.2394 6.97436 43.8984 7.52572C43.8984 7.63397 43.8984 7.84614 43.8984 7.95872C44.1975 7.46943 44.5095 6.9888 44.8259 6.51249" fill="#47B3E6"></path>
  <path d="M48.2109 1.92681L48.6443 1.42886C48.5535 1.41971 48.4621 1.41971 48.3713 1.42886C48.3453 1.56742 48.2413 1.91382 48.2283 1.94413" fill="#47B3E6"></path>
  <path d="M45.072 1.93117C45.4751 1.40291 45.8911 0.883312 46.3115 0.368042H46.1988C45.8131 0.844342 45.4274 1.32497 45.0547 1.81426C45.0547 1.86189 45.0547 1.88354 45.0547 1.93117" fill="#47B3E6"></path>
  <path d="M55.8605 6.52972C55.6265 6.79385 55.4011 7.06231 55.1758 7.33077C55.1946 7.35226 55.218 7.36925 55.2442 7.38049C55.2705 7.39174 55.2989 7.39694 55.3275 7.39572C55.3679 7.39816 55.4084 7.39816 55.4488 7.39572C55.6088 7.1151 55.7535 6.82601 55.8822 6.52972" fill="#47B3E6"></path>
  <path d="M52.894 10.5175C52.8184 10.5481 52.7459 10.5858 52.6773 10.6301L52.543 10.8249C52.543 10.8249 52.5776 11.1323 52.621 11.4225C52.621 11.4225 52.6513 11.4225 52.6643 11.4225C52.9821 10.9519 53.3072 10.4843 53.6394 10.0195C53.5551 10.0532 53.4657 10.0722 53.3751 10.0758C53.2498 10.2502 53.0906 10.3975 52.907 10.5088L52.894 10.5175Z" fill="#47B3E6"></path>
  <path d="M56.6262 5.67241L56.2969 6.04479C56.4096 6.12273 56.4746 6.4215 56.4746 6.42583C56.4767 6.44887 56.4767 6.47207 56.4746 6.49511C56.6306 6.31758 56.7866 6.14005 56.9469 5.96685C57.1073 5.79365 57.3803 5.49921 57.6013 5.26972L57.3587 4.89734C57.1116 5.15281 56.8689 5.41261 56.6262 5.67241" fill="#47B3E6"></path>
  <path d="M48.9326 18.2466V18.2206C48.7376 18.3679 48.7029 18.3895 48.4429 18.8918C48.3705 18.8716 48.2966 18.8571 48.2219 18.8485C47.3545 20.9469 46.6475 23.108 46.107 25.3132C46.1419 25.5442 46.1651 25.7769 46.1763 26.0103C46.0941 26.0423 46.0102 26.0697 45.925 26.0926C43.4049 37.3247 45.296 49.0948 51.2079 58.9746C51.3858 59.0321 51.5549 59.1137 51.7106 59.2171C51.742 59.1876 51.7753 59.1601 51.8103 59.1349C48.0822 53.0498 45.8762 46.1569 45.3791 39.0396C44.8819 31.9223 46.1083 24.7901 48.9543 18.2466" fill="#47B3E6"></path>
  <path d="M58.0387 4.38616C58.043 4.32995 58.043 4.27349 58.0387 4.21729L57.5273 4.73689C57.6573 4.84678 57.8035 4.93588 57.9607 5.00102C57.9391 4.77586 57.9 4.75854 57.9217 4.65029C57.9434 4.54204 58.0127 4.46843 58.0604 4.38616" fill="#47B3E6"></path>
  <path d="M44.7296 25.075C44.6399 24.9548 44.5629 24.8257 44.4999 24.6896C44.4717 24.6151 44.4499 24.5384 44.4349 24.4601C41.5531 35.6654 42.9739 47.5425 48.4176 57.7535C48.929 58.2169 49.0894 58.3338 49.228 58.3381C43.579 48.2155 41.972 36.3325 44.7296 25.075" fill="#47B3E6"></path>
  <path d="M49.1055 0.883312C49.2572 0.710112 49.4089 0.536912 49.5649 0.368042H49.2615C49.1142 0.532582 48.9581 0.697122 48.8281 0.865992H49.1185" fill="#47B3E6"></path>
  <path d="M53.5434 12.596C53.6234 12.7923 53.6604 13.0035 53.6517 13.2152C54.3105 12.1818 55.014 11.1715 55.7623 10.1842C55.7276 10.076 55.4806 9.87681 55.4763 9.8465C54.7915 10.7356 54.1458 11.6478 53.5391 12.5831" fill="#47B3E6"></path>
  <path d="M56.6994 9.0152C56.9681 8.69045 57.2368 8.3657 57.5142 8.04961L57.4795 7.99332C57.4535 7.95868 57.3798 7.95868 57.3322 7.96734C57.3055 7.96064 57.2795 7.95195 57.2542 7.94136C57.2163 7.90072 57.1815 7.85729 57.1501 7.81146C56.8468 8.15786 56.5521 8.50859 56.2617 8.86365C56.4264 8.86365 56.6041 8.8853 56.6951 9.0152" fill="#47B3E6"></path>
  <path d="M57.8636 7.65982C58.1149 7.37837 58.3749 7.09692 58.635 6.79382C58.635 6.79382 58.6133 6.75485 58.6003 6.72887C58.5304 6.62979 58.4384 6.54827 58.3316 6.49072C58.0412 6.79815 57.7552 7.10991 57.4648 7.42167C57.5988 7.48658 57.729 7.55886 57.8549 7.63817" fill="#47B3E6"></path>
  <path d="M59.3203 5.49474C59.4396 5.58702 59.5708 5.66276 59.7104 5.7199L60.0614 5.37783C60.0614 5.33453 60.1784 5.04875 60.1784 5.04442C60.1047 4.96215 60.0527 4.9838 59.9574 4.87555C59.745 5.08339 59.524 5.2869 59.3203 5.49474" fill="#47B3E6"></path>
  <path d="M46.8636 31.5703C46.2758 37.2521 46.8328 42.9941 48.5018 48.4573C48.5408 48.1748 48.606 47.8964 48.6968 47.626C47.2124 42.4236 46.7372 36.9856 47.297 31.605C47.4097 30.4849 47.5686 29.3736 47.7737 28.2709C47.6879 28.1219 47.5532 28.0071 47.3923 27.9461C47.1713 29.1369 46.9893 30.3449 46.8636 31.5617" fill="#47B3E6"></path>
  <path d="M51.8242 56.3897C52.3009 57.2557 52.8051 58.1217 53.3367 58.9877C53.5643 59.122 53.7667 59.2949 53.9348 59.4986C54.227 60.1005 54.5955 60.6622 55.0312 61.17C55.1112 61.1189 55.1697 61.0404 55.1959 60.9492C54.1498 59.5104 53.1945 58.0079 52.3356 56.4503C52.1493 56.4503 51.9802 56.42 51.8242 56.4027" fill="#47B3E6"></path>
  <path d="M64.7764 1.21672C64.7809 1.25846 64.7809 1.30056 64.7764 1.34229C64.7764 1.3726 64.7764 1.4159 64.7764 1.44621C65.2878 1.07383 65.8035 0.714442 66.3235 0.368042H65.5391C65.1664 0.623512 64.7981 0.887643 64.4297 1.1561C64.4817 1.21239 64.4687 1.29899 64.5294 1.35095C64.616 1.31198 64.6941 1.25136 64.7851 1.21672" fill="#47B3E6"></path>
  <path d="M44.8431 23.3128C44.7829 23.4624 44.7322 23.6157 44.6914 23.7718C44.6914 23.8844 44.7998 24.2438 44.8648 24.5036C44.8628 24.4805 44.8628 24.4573 44.8648 24.4343C44.9254 24.2005 44.9948 23.9753 45.0554 23.7458C44.9886 23.5965 44.9119 23.4519 44.8258 23.3128" fill="#47B3E6"></path>
  <path d="M48.1906 4.90154C48.4983 4.46854 48.806 4.08317 49.1267 3.68048C49.1907 3.5048 49.2442 3.32552 49.2871 3.14355C48.9014 3.61553 48.52 4.09616 48.1516 4.58545C48.075 4.68707 48.011 4.79757 47.9609 4.91453C48.0373 4.92289 48.1143 4.92289 48.1906 4.91453" fill="#47B3E6"></path>
  <path d="M50.5011 1.70618C50.1977 2.05258 49.8987 2.40764 49.604 2.7627C49.5806 2.92941 49.5459 3.09434 49.5 3.25632C49.8077 2.87528 50.1197 2.49857 50.4404 2.13052C50.4404 2.01794 50.4751 1.88371 50.5011 1.72783" fill="#47B3E6"></path>
  <path d="M40.5708 46.0974C40.6661 46.0671 40.6531 46.0498 40.7268 46.0325C39.2667 38.8217 39.4073 31.3787 41.1385 24.2281C42.8696 17.0775 46.1494 10.3932 50.7465 4.6463C50.8462 4.33887 50.9718 4.0401 51.0672 3.737C50.2351 4.7329 49.4435 5.75911 48.6923 6.81563C48.6302 7.01776 48.5489 7.2135 48.4496 7.40018C48.4496 7.40018 48.4193 7.37853 48.3629 7.2876C44.2678 13.2218 41.4873 19.9609 40.2071 27.0545C38.9269 34.1481 39.1764 41.4331 40.9391 48.4226C41.0692 48.7301 41.1472 48.886 41.2598 49.1977C41.2598 49.2367 41.2598 49.3449 41.2165 49.4618L41.4115 50.1503C41.5285 50.2845 41.6932 50.4491 41.9099 50.6526C41.6412 49.7866 41.3985 48.9206 41.1818 48.0546C40.8698 47.1496 40.8351 46.9331 40.5708 46.1234" fill="#47B3E6"></path>
  <path d="M53.0474 4.23468C52.6791 4.66768 52.3237 5.10068 51.9727 5.53368C52.0085 5.68095 52.0187 5.83327 52.003 5.984C52.2067 5.73286 52.406 5.48172 52.6141 5.23058C52.7311 4.97511 52.8828 4.61572 53.0474 4.23468" fill="#47B3E6"></path>
  <path d="M43.7329 11.9768C43.8629 11.73 43.9885 11.4789 44.1229 11.2321C44.0757 11.1438 44.0421 11.0489 44.0232 10.9506C43.8672 11.2321 43.7155 11.5179 43.5898 11.8166C43.62 11.8115 43.6507 11.8115 43.6809 11.8166C43.7069 11.8902 43.7329 11.9465 43.7545 11.9942" fill="#47B3E6"></path>
  <path d="M39.4696 23.04C40.2877 19.8795 41.402 16.8032 42.7979 13.8517C42.7979 13.8517 42.7979 13.8257 42.7979 13.8214L42.6202 13.7131C38.8171 21.748 37.1356 30.6218 37.736 39.4896C37.775 39.5329 37.853 39.5719 37.853 39.6239C37.853 39.9226 37.853 40.2171 37.814 40.5115C37.8661 41.0918 37.9267 41.6676 37.9961 42.2435L38.2951 42.8584C37.4004 36.2385 37.7992 29.5081 39.4696 23.04" fill="#47B3E6"></path>
  <path d="M64.9519 3.25639C64.8912 3.44258 64.8478 3.52052 64.6875 3.91888C66.1151 2.79361 67.6165 1.7651 69.1816 0.84025C69.459 0.67571 69.7407 0.515499 70.0224 0.359619H68.7223C67.4234 1.1376 66.1664 1.98311 64.9562 2.89267C64.9675 3.01365 64.9675 3.13541 64.9562 3.25639" fill="#47B3E6"></path>
  <path d="M36.5909 26.7162C36.5302 27.0583 36.4739 27.396 36.4219 27.7381C36.4479 27.7944 36.5259 28.0629 36.5736 28.1711C36.6386 27.7381 36.7122 27.2791 36.7902 26.8331C36.7481 26.8284 36.7079 26.8132 36.6731 26.789C36.6383 26.7648 36.61 26.7324 36.5909 26.6946" fill="#47B3E6"></path>
  <path d="M51.0907 6.63794C50.887 6.9064 50.6876 7.17919 50.4883 7.44765C50.588 7.41301 50.7483 7.36538 50.9563 7.30909C51.019 7.08932 51.0639 6.86489 51.0907 6.63794" fill="#47B3E6"></path>
  <path d="M50.8047 10.2534L51.004 10.2274C51.1297 10.0325 51.3031 9.79439 51.5154 9.51727C51.5713 9.53051 51.6252 9.55088 51.6758 9.57789L51.7321 9.53892C51.9705 9.19685 52.2045 8.85911 52.4515 8.5257C52.4054 8.48917 52.3497 8.46663 52.2912 8.46075C52.2912 8.40013 52.2912 8.31353 52.2912 8.24858C52.2576 8.22006 52.2271 8.18813 52.2002 8.15332C51.7263 8.79127 51.2698 9.43789 50.8307 10.0932C50.8353 10.1465 50.8353 10.2001 50.8307 10.2534" fill="#47B3E6"></path>
  <path d="M51.6568 6.36519C51.6568 6.38684 51.7652 5.93219 51.8215 5.70703C51.6958 5.85858 51.5745 6.01446 51.4531 6.17034C51.5225 6.23962 51.5918 6.3089 51.6568 6.36519Z" fill="#47B3E6"></path>
  <path d="M56.205 3.68926C55.867 4.12226 55.5853 4.48165 55.2559 4.85403C55.2559 4.94063 55.2559 4.91032 55.1562 5.22641C56.153 4.11216 57.1989 3.04986 58.2939 2.03953C58.1899 1.862 58.2939 1.66715 58.2549 1.48096C57.5846 2.08716 56.9302 2.71212 56.2917 3.35585C56.2527 3.49874 56.244 3.57235 56.205 3.67627" fill="#47B3E6"></path>
  <path d="M43.0634 23.9667C44.54 18.1888 47.0843 12.7376 50.5652 7.89368C50.3832 8.00193 50.4352 7.9976 49.9975 8.3007L49.9282 8.23575C45.6402 14.3866 42.8376 21.4468 41.7405 28.862C40.6434 36.2772 41.2817 43.8456 43.6052 50.9729C43.7612 51.3366 43.8999 51.7003 43.8999 51.7047C44.054 51.7597 44.1903 51.8555 44.2942 51.9818C41.083 42.9777 40.6542 33.2172 43.0634 23.9667" fill="#47B3E6"></path>
  <path d="M96.2891 29.9592H105.598L105.039 31.7172H98.3216V36.294H104.48V38.0779H98.3216V43.1094H105.061L105.663 44.889H96.2891V29.9592Z" fill="#002041"></path>
  <path d="M117.064 29.9548H118.889L125.42 44.889H123.348L121.749 41.2864H114.204L112.609 44.889H110.512L117.064 29.9548ZM117.979 32.6307L114.993 39.4418H120.943L117.979 32.6307Z" fill="#002041"></path>
  <path d="M130.445 29.9548H136.79C139.507 29.9548 141.453 31.6868 141.453 34.038C141.453 36.203 140.374 37.2898 138.302 37.87L142.034 44.889H139.837L136.231 38.1775H132.5V44.889H130.445V29.9548ZM132.5 31.6868V36.4195H136.4C138.263 36.4195 139.282 35.5924 139.282 34.038C139.282 32.4835 138.263 31.6954 136.248 31.6954L132.5 31.6868Z" fill="#002041"></path>
  <path d="M146.586 29.9592H158.734V31.7605H153.676V44.889H151.643V31.7605H146.586V29.9592Z" fill="#002041"></path>
  <path d="M164.289 29.9592H166.339V36.294H173.784V29.9592H175.834V44.889H173.784V38.1169H166.339V44.889H164.289V29.9592Z" fill="#002041"></path>
  <path d="M96.2305 59.5461H104.439L104.274 60.477H97.2272V66.3572H103.342V67.2925H97.2272V74.4759H96.2305V59.5461Z" fill="#002041"></path>
  <path d="M109.957 59.5461H110.971V69.4705C110.971 72.5015 112.609 74.0862 115.799 74.0862C118.664 74.0862 120.215 72.4711 120.215 69.5311V59.5461H121.212V69.4055C121.212 73.0514 119.244 74.9999 115.552 74.9999C112.05 74.9999 109.957 72.9301 109.957 69.4705V59.5461Z" fill="#002041"></path>
  <path d="M127.945 59.5461H129.358L138.065 73.1336V59.5461H139.079V74.4759H137.813L128.942 60.6632V74.4759H127.945V59.5461Z" fill="#002041"></path>
  <path d="M145.961 59.5461H151.101C155.144 59.5461 157.753 62.5771 157.753 67.2968C157.753 69.5917 157.073 71.4146 155.742 72.7223C154.481 73.9433 152.904 74.4803 150.459 74.4803H145.961V59.5461ZM146.975 60.4381V73.5493H150.581C152.696 73.5493 154.004 73.0947 155.062 72.0165C156.119 70.9383 156.717 69.202 156.717 67.1929C156.717 65.0279 156.076 63.1097 154.958 61.9969C153.939 60.962 152.531 60.4424 150.663 60.4424L146.975 60.4381Z" fill="#002041"></path>
  <path d="M96.6406 0.372437H102.054C105.057 0.372437 106.86 1.67144 106.86 3.81046C106.86 6.27423 104.602 6.91507 103.358 7.27446C104.134 7.37682 104.888 7.60038 105.594 7.93695C106.18 8.24352 106.67 8.70563 107.011 9.27246C107.351 9.83929 107.528 10.4889 107.523 11.1498C107.523 12.5181 106.717 15.2936 102.569 15.2936H96.6406V0.372437ZM97.6374 1.19947V6.85445H101.386C104.021 6.85445 105.867 5.65071 105.867 3.91438C105.867 2.17805 104.415 1.19947 102.032 1.19947H97.6374ZM97.6374 7.69447V14.4536H102.448C104.853 14.4536 106.47 13.1546 106.47 11.1845C106.47 8.98914 104.48 7.72045 101.122 7.72045L97.6374 7.69447Z" fill="#002041"></path>
  <path d="M113.352 0.372437H122.205L121.768 1.30339H114.348V7.16621H120.897V8.09717H114.348V14.3713H121.976L122.327 15.3066H113.352V0.372437Z" fill="#002041"></path>
  <path d="M127.095 0.372437H136.941L128.464 14.4146H137.379V15.3066H126.848L135.303 1.28174H127.095V0.372437Z" fill="#002041"></path>
  <path d="M141.836 7.88927C141.836 3.26915 144.549 0 148.428 0C152.306 0 155.019 3.2908 155.019 8.01917C155.019 12.5354 152.241 15.8132 148.428 15.8132C144.614 15.8132 141.836 12.5007 141.836 7.90226M153.971 8.08845C153.971 3.75844 151.773 0.943941 148.337 0.943941C145.06 0.943941 142.885 3.74112 142.885 7.87195C142.885 12.0028 145.143 14.8952 148.337 14.8952C153.186 14.8952 153.971 9.77715 153.971 8.07979" fill="#002041"></path>
  <path d="M165.759 6.75051C162.725 5.67234 161.754 4.90593 161.754 3.62425C161.754 1.96585 163.146 0.909332 165.343 0.909332C167.54 0.909332 168.71 2.45514 169.243 3.36011L170.11 2.69329C169.243 1.53718 168.077 0.0390015 165.252 0.0390015C162.426 0.0390015 160.697 1.38563 160.697 3.58094C160.697 6.12699 163.297 7.04495 165.299 7.74641C167.622 8.55179 169.716 9.50439 169.716 11.4919C169.716 13.4793 167.982 14.826 165.507 14.826C162.11 14.826 161.052 12.4271 160.636 11.2884L159.77 11.9508C160.218 13.084 160.998 14.0557 162.008 14.7392C163.017 15.4228 164.21 15.7865 165.429 15.7829C168.602 15.7829 170.777 13.9989 170.777 11.3706C170.777 8.8419 168.61 7.78538 165.741 6.75051" fill="#002041"></path>
  <path d="M36.7839 0.368042H34.4957C27.3657 11.5123 23.7632 24.5449 24.1582 37.7656C24.5533 50.9863 28.9275 63.781 36.7102 74.4804H39.0028C30.9958 63.8781 26.4817 51.0531 26.0842 37.7772C25.6868 24.5012 29.4255 11.4295 36.7839 0.368042" fill="#00A4E1"></path>
  <path d="M27.3653 35.8048C27.3473 23.149 31.1885 10.7881 38.3775 0.368042H36.787C29.4285 11.4295 25.6898 24.5012 26.0873 37.7772C26.4848 51.0531 30.9988 63.8781 39.0058 74.4804H40.6527C32.0195 63.4358 27.3412 49.8185 27.3653 35.8048Z" fill="white"></path>
  <defs>
    <radialGradient id="paint0_radial_1831_19654" cx="0" cy="0" r="1" gradientUnits="userSpaceOnUse" gradientTransform="translate(88.645 35.1731) rotate(180) scale(76.3439 76.2774)">
      <stop stop-color="#008ED3"></stop>
      <stop offset="0.79" stop-color="#008ED3"></stop>
      <stop offset="0.82" stop-color="#008BD0"></stop>
      <stop offset="0.84" stop-color="#0082C6"></stop>
      <stop offset="0.86" stop-color="#0074B5"></stop>
      <stop offset="0.88" stop-color="#005F9E"></stop>
      <stop offset="0.89" stop-color="#005997"></stop>
      <stop offset="0.96" stop-color="#00264A"></stop>
      <stop offset="0.97" stop-color="#002041"></stop>
      <stop offset="1" stop-color="#002041"></stop>
    </radialGradient>
    <radialGradient id="paint1_radial_1831_19654" cx="0" cy="0" r="1" gradientUnits="userSpaceOnUse" gradientTransform="translate(90.1094 35.0168) rotate(180) scale(63.0175 62.9626)">
      <stop stop-color="#0062AB"></stop>
      <stop offset="0.36" stop-color="#0062AB"></stop>
      <stop offset="0.46" stop-color="#005698"></stop>
      <stop offset="0.65" stop-color="#003766"></stop>
      <stop offset="0.77" stop-color="#002041"></stop>
      <stop offset="0.8" stop-color="#072342"></stop>
      <stop offset="0.83" stop-color="#1A2C45"></stop>
      <stop offset="0.87" stop-color="#393B49"></stop>
      <stop offset="0.91" stop-color="#654F50"></stop>
      <stop offset="0.95" stop-color="#9C6958"></stop>
      <stop offset="1" stop-color="#B27865"></stop>
    </radialGradient>
  </defs>
</svg>
