<svg width="508" height="408" viewBox="0 0 508 408" fill="none" xmlns="http://www.w3.org/2000/svg">
<path fill-rule="evenodd" clip-rule="evenodd" d="M420.624 132.88C428.48 132.88 434.848 139.248 434.848 147.104C434.848 154.96 428.48 161.328 420.624 161.328H339.344C347.2 161.328 353.568 167.696 353.568 175.552C353.568 183.408 347.2 189.776 339.344 189.776H384.048C391.904 189.776 398.272 196.144 398.272 204C398.272 211.856 391.904 218.224 384.048 218.224H363.375C353.469 218.224 345.44 224.592 345.44 232.448C345.44 237.685 349.504 242.427 357.632 246.672C365.488 246.672 371.856 253.04 371.856 260.896C371.856 268.752 365.488 275.12 357.632 275.12H188.976C181.12 275.12 174.752 268.752 174.752 260.896C174.752 253.04 181.12 246.672 188.976 246.672H109.728C101.872 246.672 95.5039 240.304 95.5039 232.448C95.5039 224.592 101.872 218.224 109.728 218.224H191.008C198.864 218.224 205.232 211.856 205.232 204C205.232 196.144 198.864 189.776 191.008 189.776H140.208C132.352 189.776 125.984 183.408 125.984 175.552C125.984 167.696 132.352 161.328 140.208 161.328H221.488C213.632 161.328 207.264 154.96 207.264 147.104C207.264 139.248 213.632 132.88 221.488 132.88H420.624ZM420.624 189.776C428.48 189.776 434.848 196.144 434.848 204C434.848 211.856 428.48 218.224 420.624 218.224C412.768 218.224 406.4 211.856 406.4 204C406.4 196.144 412.768 189.776 420.624 189.776Z" fill="#C5C1F7" fill-opacity="0.2"/>
<path fill-rule="evenodd" clip-rule="evenodd" d="M203.082 271.447L206.11 271.342V314.012C206.11 314.977 206.896 315.76 207.866 315.76H313.205C314.174 315.76 314.96 314.977 314.96 314.012V167.739C314.96 164.198 312.078 161.328 308.523 161.328H212.547C208.992 161.328 206.11 164.198 206.11 167.739V198.153L203.082 198.049C202.727 198.036 202.371 198.03 202.014 198.03C183.654 198.03 168.656 214.412 168.656 234.748C168.656 255.084 183.654 271.466 202.014 271.466C202.371 271.466 202.727 271.46 203.082 271.447ZM203.418 257.422C202.952 257.459 202.484 257.478 202.014 257.478C190.932 257.478 182.155 247.206 182.155 234.748C182.155 222.289 190.932 212.018 202.014 212.018C202.484 212.018 202.952 212.037 203.418 212.074L206.11 212.289V257.207L203.418 257.422Z" fill="white" stroke="#8077EE" stroke-width="2.5" stroke-linejoin="round"/>
<path d="M298.703 173.889V211.112M298.703 222.657V232.295V222.657Z" stroke="#B3AEF5" stroke-width="2.5" stroke-linecap="round" stroke-linejoin="round"/>
<path d="M136.406 299.504H150.37M368.054 299.504H373.89M327.154 299.504H358.503M162.562 299.504H198.029" stroke="#8077EE" stroke-width="2.5" stroke-linecap="round" stroke-linejoin="round"/>
<path d="M260.097 71.9202C254.678 80.4821 251.969 87.9327 251.969 94.2722C251.969 105.562 261.425 110.618 261.425 122.848C261.425 129.055 258.273 135.218 251.969 141.338" stroke="#B3AEF5" stroke-width="2.5" stroke-linecap="round"/>
<path d="M235.709 94.272C233.936 105.474 241.805 107.545 241.805 117.588C241.805 122.686 239.773 127.783 235.709 132.88" stroke="#B3AEF5" stroke-width="2.5" stroke-linecap="round"/>
<path d="M273.906 89.1394C271.221 96.0872 272.729 100.322 273.906 102.815C276.42 108.143 280.418 112.742 280.418 118.164C280.418 124.461 278.247 130.521 273.906 136.345" stroke="#B3AEF5" stroke-width="2.5" stroke-linecap="round"/>
<path d="M213.359 171.488C213.359 170.366 214.269 169.456 215.391 169.456L253.999 169.456V309.664H215.391C214.269 309.664 213.359 308.754 213.359 307.632V171.488Z" fill="#C5C1F7" fill-opacity="0.3"/>
</svg>
